<svg xmlns="http://www.w3.org/2000/svg" width="36.509" height="37.524" viewBox="0 0 36.509 37.524">
  <path id="Icon_awesome-search" data-name="Icon awesome-search" d="M36.012,32.441,28.9,25.135a1.687,1.687,0,0,0-1.212-.513H26.528a15.436,15.436,0,0,0,3.138-9.38A15.04,15.04,0,0,0,14.833,0,15.04,15.04,0,0,0,0,15.242,15.04,15.04,0,0,0,14.833,30.485a14.51,14.51,0,0,0,9.128-3.224v1.194a1.783,1.783,0,0,0,.5,1.246l7.11,7.306a1.672,1.672,0,0,0,2.417,0l2.018-2.074a1.8,1.8,0,0,0,.007-2.492Zm-21.18-7.819A9.251,9.251,0,0,1,5.7,15.242a9.251,9.251,0,0,1,9.128-9.38,9.251,9.251,0,0,1,9.128,9.38A9.251,9.251,0,0,1,14.833,24.622Z"/>
</svg>
