<svg id="Component_10_1" data-name="Component 10 – 1" xmlns="http://www.w3.org/2000/svg" width="224.126" height="39.378" viewBox="0 0 224.126 39.378">
  <g id="Component_6_3" data-name="Component 6 – 3">
    <g id="icon">
      <g id="Group_1" data-name="Group 1" transform="translate(2.525)">
        <path id="Path_1" data-name="Path 1" d="M9.36,8.147h0a.451.451,0,0,1-.3.118C4.4,10.568,2.866,17,5.641,22.729l16.885-8.147h0c.118-.059.177-.059.3-.118,4.6-2.3,6.2-8.738,3.424-14.464Z" transform="translate(-4.259)"/>
      </g>
      <g id="Group_2" data-name="Group 2" transform="translate(0 16.708)">
        <path id="Path_2" data-name="Path 2" d="M5.07,36.447h0c-.059.059-.177.059-.3.118-4.6,2.243-6.2,8.679-3.424,14.405l16.885-8.147h0c.118-.059.177-.059.3-.118,4.664-2.243,6.2-8.738,3.424-14.405Z" transform="translate(0.019 -28.3)"/>
      </g>
    </g>
  </g>
  <text id="Search_Springly_Fashion_" data-name="Search Springly Fashion
" transform="translate(32.126 4.621)" font-size="18" font-family="PlayfairDisplay-MediumItalic, Playfair Display" font-weight="500" font-style="italic"><tspan x="0" y="19">Search Springly Fashion</tspan></text>
</svg>
