<svg xmlns="http://www.w3.org/2000/svg" width="64.344" height="68" viewBox="0 0 64.344 68">
  <g id="Group_20" data-name="Group 20" transform="translate(-1744.972 -34.232)">
    <g id="shopping-cart-bg" transform="translate(1744.972 41.232)">
      <g id="polygon" transform="translate(0)">
        <path id="Path_17" data-name="Path 17" d="M-1062.185,216.581l7.826,4.417h8.651l4.181,8.4,7.279,5.064-.824,9.358,2.858,7.972-5.045,6.433-2,9.826-8.555,2.7-5.7,6.218-8.67-1.787-8.852,1.787-5.946-6.218-8.334-2.7-1.688-9.826-5.62-6.433,3.539-7.972-1.237-9.358,7.653-5.064,4.085-8.4h7.547Z" transform="translate(1092.625 -216.581)"/>
      </g>
      <path id="Icon_awesome-shopping-cart" data-name="Icon awesome-shopping-cart" d="M26.6,15.179,28.985,4.7a1.209,1.209,0,0,0-1.179-1.477H8.02L7.558.967A1.209,1.209,0,0,0,6.374,0H1.209A1.209,1.209,0,0,0,0,1.209v.806A1.209,1.209,0,0,0,1.209,3.224h3.52l3.539,17.3a2.821,2.821,0,1,0,3.377.431H22.206a2.82,2.82,0,1,0,3.2-.524l.278-1.223a1.209,1.209,0,0,0-1.179-1.477H10.987l-.33-1.612H25.425A1.209,1.209,0,0,0,26.6,15.179Z" transform="matrix(1, 0.017, -0.017, 1, 15.07, 18.332)" fill="#fff"/>
    </g>
    <g id="number" transform="translate(1784.884 34.232)">
      <g id="polygon-2" data-name="polygon" transform="translate(0)">
        <path id="Path_17-2" data-name="Path 17" d="M-1080.314,216.581l3.165,1.787h3.5l1.691,3.4,2.944,2.049-.334,3.786,1.156,3.225-2.04,2.6-.811,3.975-3.46,1.094-2.3,2.516-3.506-.723-3.58.723-2.4-2.516-3.371-1.094-.683-3.975-2.273-2.6,1.431-3.225-.5-3.786,3.1-2.049,1.652-3.4h3.052Z" transform="translate(1092.625 -216.581)" fill="#ff9599"/>
      </g>
    </g>
  </g>
</svg>
