<svg xmlns="http://www.w3.org/2000/svg" width="33.289" height="38.149" viewBox="0 0 33.289 38.149">
  <path id="Icon_awesome-shopping-bag" data-name="Icon awesome-shopping-bag" d="M26.156,11.921V9.537a9.511,9.511,0,1,0-19.022,0v2.384H0V32.188a5.953,5.953,0,0,0,5.945,5.961h21.4a5.953,5.953,0,0,0,5.945-5.961V11.921ZM11.889,9.537a4.756,4.756,0,1,1,9.511,0v2.384H11.889Zm11.889,8.941a1.788,1.788,0,1,1,1.783-1.788A1.786,1.786,0,0,1,23.778,18.478Zm-14.267,0a1.788,1.788,0,1,1,1.783-1.788A1.786,1.786,0,0,1,9.511,18.478Z" fill="#fff"/>
</svg>
